<svg xmlns="http://www.w3.org/2000/svg" viewBox="0 0 736.08 524.416"><path d="M654.947,349.152A122.5,122.5,0,0,0,473.112,206.117,206.789,206.789,0,0,0,318.3,136.669c-114.5,0-207.319,92.82-207.319,207.319a209.717,209.717,0,0,0,1.1,21.482c-48.515,27.478-81.125,78.569-81.125,137.067,0,87.564,73.056,158.548,163.174,158.548,1.273,0,2.541-.019,3.806-.047.3.024.609.047.918.047H580.569a11.951,11.951,0,0,0,8.379-3.438c4.914.433,9.887.666,14.916.666,90.118,0,163.174-70.984,163.174-158.548C767.038,429.538,720.043,369.985,654.947,349.152ZM345.774,368.535l-2.3-6.885L332.913,330.1c-67.412,44.444-66.234,140.027,8.21,181.6,2.881,1.372,4.633,4.058,3.772,6.138l-7.227,17.446-.109-.045a2.732,2.732,0,0,1-.035.272l.043.018-.185.447-.075.18c-2.787,6.728-4.18,10.092-6.967,16.819-.861,2.081-5.1,2.322-9.272.337C210.707,494.021,211.934,345.236,318.225,286.2l-2.012-6.012-10.379-31.021-4.853-14.507a7.681,7.681,0,0,1,10.711-9.311l86.2,42.98a11.187,11.187,0,0,1,5.02,15l-42.98,86.2A7.68,7.68,0,0,1,345.774,368.535Zm108.665,189,2.011,6.013,10.379,31.02,4.854,14.508a7.68,7.68,0,0,1-10.711,9.31l-86.2-42.98a11.184,11.184,0,0,1-5.019-15l42.98-86.2a7.68,7.68,0,0,1,14.157.99l2.3,6.885,10.557,31.555c67.411-44.444,66.234-140.027-8.21-181.6-2.881-1.372-4.634-4.057-3.772-6.138,2.89-6.978,4.336-10.467,7.226-17.446l.109.045c.01-.091.017-.183.035-.272l-.042-.018.185-.446.074-.181,6.967-16.819c.862-2.08,5.106-2.321,9.272-.336C561.957,349.706,560.729,498.49,454.439,557.531Z" transform="translate(-30.957 -136.669)"/></svg>