<svg xmlns="http://www.w3.org/2000/svg" viewBox="0 0 736.08 524.416"><path d="M655.949,350.275A122.5,122.5,0,0,0,474.115,207.24,206.793,206.793,0,0,0,319.3,137.792c-114.5,0-207.319,92.82-207.319,207.319a209.717,209.717,0,0,0,1.1,21.482C64.569,394.071,31.96,445.162,31.96,503.66c0,87.563,73.055,158.548,163.174,158.548,1.272,0,2.54-.019,3.806-.047.3.024.608.047.918.047H581.571a11.954,11.954,0,0,0,8.38-3.438c4.913.433,9.886.666,14.915.666,90.119,0,163.174-70.985,163.174-158.548C768.04,430.661,721.045,371.108,655.949,350.275Zm-156.7,212.257H280.869a31.754,31.754,0,0,1-27.5-47.631L362.558,325.78a31.754,31.754,0,0,1,55,0L526.746,514.9A31.754,31.754,0,0,1,499.246,562.532Z" transform="translate(-31.96 -137.792)"/><rect x="344.096" y="215.545" width="28.003" height="136.497" rx="12"/><circle cx="359.63" cy="386.243" r="17.673"/></svg>