<svg xmlns="http://www.w3.org/2000/svg" viewBox="0 0 736.08 524.416"><path d="M655.949,349.152A122.5,122.5,0,0,0,474.115,206.117,206.793,206.793,0,0,0,319.3,136.669c-114.5,0-207.319,92.82-207.319,207.319a209.717,209.717,0,0,0,1.1,21.482C64.569,392.948,31.96,444.039,31.96,502.537c0,87.564,73.055,158.548,163.174,158.548,1.272,0,2.54-.019,3.806-.047.3.024.608.047.918.047H581.571a11.954,11.954,0,0,0,8.38-3.438c4.913.433,9.886.666,14.915.666,90.119,0,163.174-70.984,163.174-158.548C768.04,429.538,721.045,369.985,655.949,349.152ZM575.178,357.9l-226.2,226.2a10.728,10.728,0,0,1-15.171,0L294.268,544.55a10.678,10.678,0,0,1-1.658-2.163L184.8,434.58a10.727,10.727,0,0,1,0-15.17l39.543-39.543a10.727,10.727,0,0,1,15.17,0L341.649,482,520.465,303.183a10.727,10.727,0,0,1,15.17,0l39.543,39.543A10.726,10.726,0,0,1,575.178,357.9Z" transform="translate(-31.96 -136.669)"/></svg>