<svg xmlns="http://www.w3.org/2000/svg" viewBox="0 0 736.08 524.416"><path d="M654.947,349.152A122.5,122.5,0,0,0,473.112,206.117,206.789,206.789,0,0,0,318.3,136.669c-114.5,0-207.319,92.82-207.319,207.319a209.717,209.717,0,0,0,1.1,21.482c-48.515,27.478-81.125,78.569-81.125,137.067,0,87.564,73.056,158.548,163.174,158.548,1.273,0,2.541-.019,3.806-.047.3.024.609.047.918.047H580.569a11.951,11.951,0,0,0,8.379-3.438c4.914.433,9.887.666,14.916.666,90.118,0,163.174-70.984,163.174-158.548C767.038,429.538,720.043,369.985,654.947,349.152Zm-104.8,95.382L407.925,586.752a23.358,23.358,0,0,1-33.032,0L232.675,444.534c-10.1-10.1-2.948-27.378,11.34-27.378H344.261l-1.073-155.5a8.513,8.513,0,0,1,8.513-8.513h39.431v.054c.187.02.37.055.554.085v-.139h39.43a8.512,8.512,0,0,1,8.513,8.513l-1.073,155.5H538.8C553.091,417.156,560.246,434.431,550.143,444.534Z" transform="translate(-30.957 -136.669)"/></svg>