<svg xmlns="http://www.w3.org/2000/svg" viewBox="0 0 736.08 524.416"><path d="M654.947,349.152A122.5,122.5,0,0,0,473.112,206.117,206.789,206.789,0,0,0,318.3,136.669c-114.5,0-207.319,92.82-207.319,207.319a209.717,209.717,0,0,0,1.1,21.482c-48.515,27.478-81.125,78.569-81.125,137.067,0,87.564,73.056,158.548,163.174,158.548,1.273,0,2.541-.019,3.806-.047.3.024.609.047.918.047H580.569a11.951,11.951,0,0,0,8.379-3.438c4.914.433,9.887.666,14.916.666,90.118,0,163.174-70.984,163.174-158.548C767.038,429.538,720.043,369.985,654.947,349.152ZM538.8,429.577H438.556l1.073,155.5a8.512,8.512,0,0,1-8.513,8.513h-39.43v-.14c-.184.031-.367.066-.554.086v.054H351.7a8.513,8.513,0,0,1-8.513-8.513l1.073-155.5H244.015c-14.288,0-21.443-17.275-11.34-27.378L374.893,259.981a23.356,23.356,0,0,1,33.032,0L550.143,402.2C560.246,412.3,553.091,429.577,538.8,429.577Z" transform="translate(-30.957 -136.669)"/></svg>