<svg xmlns="http://www.w3.org/2000/svg" viewBox="0 0 736.08 524.416"><path d="M655.949,350.275A122.5,122.5,0,0,0,474.115,207.24,206.793,206.793,0,0,0,319.3,137.792c-114.5,0-207.319,92.82-207.319,207.319a209.717,209.717,0,0,0,1.1,21.482C64.569,394.071,31.96,445.162,31.96,503.66c0,87.563,73.055,158.548,163.174,158.548,1.272,0,2.54-.019,3.806-.047.3.024.608.047.918.047H581.571a11.954,11.954,0,0,0,8.38-3.438c4.913.433,9.886.666,14.915.666,90.119,0,163.174-70.985,163.174-158.548C768.04,430.661,721.045,371.108,655.949,350.275ZM540.455,516.38a10.727,10.727,0,0,1,0,15.17l-39.543,39.543a10.727,10.727,0,0,1-15.17,0L400,485.352l-85.742,85.741a10.727,10.727,0,0,1-15.17,0L259.545,531.55a10.727,10.727,0,0,1,0-15.17l85.742-85.742L259.545,344.9a10.728,10.728,0,0,1,0-15.171l39.543-39.543a10.727,10.727,0,0,1,15.17,0L400,375.925l85.742-85.742a10.727,10.727,0,0,1,15.17,0l39.543,39.543a10.728,10.728,0,0,1,0,15.171l-85.742,85.741Z" transform="translate(-31.96 -137.792)"/></svg>