<svg xmlns="http://www.w3.org/2000/svg" viewBox="0 0 736.08 524.416"><path d="M655.949,350.275A122.5,122.5,0,0,0,474.115,207.24,206.793,206.793,0,0,0,319.3,137.792c-114.5,0-207.319,92.82-207.319,207.319a209.717,209.717,0,0,0,1.1,21.482C64.569,394.071,31.96,445.162,31.96,503.66c0,87.563,73.055,158.548,163.174,158.548,1.272,0,2.54-.019,3.806-.047.3.024.608.047.918.047H581.571a11.954,11.954,0,0,0,8.38-3.438c4.913.433,9.886.666,14.915.666,90.119,0,163.174-70.985,163.174-158.548C768.04,430.661,721.045,371.108,655.949,350.275ZM487.318,366.3a32.246,32.246,0,1,1-32.245,32.245A32.246,32.246,0,0,1,487.318,366.3Zm-178.094,0a32.246,32.246,0,1,1-32.245,32.245A32.245,32.245,0,0,1,309.224,366.3ZM566.989,577.273l-.289.209a17.668,17.668,0,0,1-23.627-2.623C506.78,533.8,455.68,509.225,400,509.225S293.22,533.8,256.927,574.859a17.668,17.668,0,0,1-23.627,2.623l-.289-.209a17.64,17.64,0,0,1-2.9-25.926C273.131,502.63,334.045,473.556,400,473.556s126.869,29.073,169.887,77.791A17.64,17.64,0,0,1,566.989,577.273Z" transform="translate(-31.96 -137.792)"/></svg>