<svg xmlns="http://www.w3.org/2000/svg" viewBox="0 0 770.553 770.553"><path d="M14.106,14.106V784.66H784.66V14.106ZM701.714,706.522H97.052V101.86H701.714Z" transform="translate(-14.106 -14.106)"/><path d="M631.118,269.965l-38.181-38.181a12.07,12.07,0,0,0-17.07,0l-234.14,234.14a12.071,12.071,0,0,1-17.071,0L224.133,365.4a12.07,12.07,0,0,0-17.07,0l-38.181,38.181a12.07,12.07,0,0,0,0,17.07L324.828,576.6a12.071,12.071,0,0,0,17.071,0l46.716-46.716-.172-.172L631.118,287.035A12.07,12.07,0,0,0,631.118,269.965Z" transform="translate(-14.106 -14.106)"/></svg>