<svg xmlns="http://www.w3.org/2000/svg" viewBox="0 0 1590.191 145.681"><path d="M288,648.234c0-40.734-31.5-72.17-72-72.17s-72,31.9-72,72.17,31.5,72.511,72,72.511,76.33-32.288,76.33-72.724S504,648.4,504,648.4s144,40.9,144,0-31.5-72.34-72-72.34-72,28.415-72,68.425,31.5,76.256,72,76.256,76.234-31.436,76.234-72.341S864,648.4,864,648.4s144,40.9,144,0-31.5-72.34-72-72.34-72,27.053-72,67.745,34.436,74.468,74.468,74.468,74.277-28.968,74.277-69.873,211.255,0,211.255,0,144,40.9,144,0-31.84-72.17-72.17-72.17-71.83,27.9-71.83,68.085,31.5,76.426,72,76.426,77.5-32.245,77.5-72.245,210.5-.1,210.5-.1,144,40.9,144,0-31.5-72.34-72-72.34-72,27.1-72,68.766,31.5,75.915,72,75.915,77.191-31.947,77.191-72.851" transform="translate(-143.5 -575.564)" fill="none" stroke="#000" stroke-miterlimit="10"/></svg>