<svg xmlns="http://www.w3.org/2000/svg" viewBox="0 0 570.232 723.95"><path d="M285.418,141.808c-100.5,44.36-167.685,136.851-170.446,247.847C112.235,499.7,173.54,595.876,270.81,645.341c7.7,3.667,15.535,3.221,17.127-.621q6.433-15.533,12.868-31.066l.138-.334.342-.825-.079-.032c.035-.165.046-.335.065-.5l.2.084q6.673-16.113,13.348-32.225c1.592-3.842-1.646-8.8-6.967-11.337-146.766-75.885-139.913-281.3,9.486-349.61Q301.379,180.339,285.418,141.808Z" transform="translate(-114.884 -38.025)"/><path d="M412.71,118.947,253.491,39.559a14.187,14.187,0,0,0-19.784,17.2l8.965,26.8,19.17,57.3,26.466,79.1,23.88,71.377,4.255,12.717a14.187,14.187,0,0,0,26.15,1.829l79.388-159.219A20.661,20.661,0,0,0,412.71,118.947Z" transform="translate(-114.884 -38.025)"/><path d="M566.293,743.243l-8.965-26.8-19.17-57.3-26.466-79.1-23.88-71.377-4.255-12.717a14.187,14.187,0,0,0-26.15-1.829L378.019,653.343a20.661,20.661,0,0,0,9.271,27.71l159.219,79.388A14.187,14.187,0,0,0,566.293,743.243Z" transform="translate(-114.884 -38.025)"/><path d="M514.582,658.192c100.505-44.36,167.685-136.851,170.446-247.847C687.765,300.3,626.46,204.124,529.19,154.659c-7.7-3.666-15.535-3.221-17.127.621q-6.433,15.532-12.868,31.066l-.138.334-.342.825.079.032c-.035.165-.046.335-.065.5l-.2-.084q-6.673,16.113-13.348,32.225c-1.592,3.842,1.646,8.8,6.967,11.337,146.766,75.885,139.913,281.3-9.486,349.61Q498.621,619.661,514.582,658.192Z" transform="translate(-114.884 -38.025)"/></svg>