<svg xmlns="http://www.w3.org/2000/svg" viewBox="0 0 770.553 770.553"><path d="M312.611,220.518C157.4,290.726,150.446,503.9,302.1,582.789c5.537,2.638,11.177,2.318,12.322-.447,3.7-8.94,5.555-13.41,9.258-22.351l.1-.24.246-.593-.057-.024a3.616,3.616,0,0,0,.046-.362l.145.06c3.842-9.273,5.762-13.91,9.6-23.184,1.145-2.764-1.185-6.333-5.013-8.157-105.44-56.409-100.581-200.6,6.825-251.529Z" transform="translate(-14.106 -14.106)"/><path d="M404.192,204.071,289.641,146.955a10.207,10.207,0,0,0-14.234,12.373l6.45,19.278,13.792,41.224,19.041,56.91,17.181,51.353,3.062,9.15a10.207,10.207,0,0,0,18.813,1.316l57.117-114.552A14.865,14.865,0,0,0,404.192,204.071Z" transform="translate(-14.106 -14.106)"/><path d="M514.689,653.225l-6.45-19.278-13.792-41.224-19.041-56.91L458.225,484.46l-3.061-9.149A10.207,10.207,0,0,0,436.35,474L379.234,588.546a14.864,14.864,0,0,0,6.67,19.936L500.455,665.6A10.207,10.207,0,0,0,514.689,653.225Z" transform="translate(-14.106 -14.106)"/><path d="M477.485,592.035C632.7,521.827,639.65,308.658,488,229.764c-5.537-2.638-11.177-2.317-12.322.447-3.7,8.94-5.555,13.41-9.258,22.351l-.1.24-.246.593.057.024a3.616,3.616,0,0,0-.046.362l-.145-.06-9.6,23.184c-1.145,2.765,1.185,6.334,5.013,8.157,105.44,56.409,100.581,200.6-6.825,251.529Z" transform="translate(-14.106 -14.106)"/><path d="M14.106,14.106V784.66H784.66V14.106ZM701.714,706.522H97.052V101.86H701.714Z" transform="translate(-14.106 -14.106)"/></svg>