<svg xmlns="http://www.w3.org/2000/svg" viewBox="0 0 622.779 694"><circle cx="355.779" cy="165" r="165"/><path d="M400,478.018V764.085A9.915,9.915,0,0,1,390.085,774H54.137a9.912,9.912,0,0,1-9.91-10.243C45.7,720.731,56.707,552.58,139,460c47.991-53.99,68.733-75.054,91-66,18.563,7.549,27.081,27.832,73,50,29,14,66.738,20.155,85.147,21.365A12.679,12.679,0,0,1,400,478.018Z" transform="translate(-44.221 -80)"/><rect x="418.779" y="478" width="204" height="46" rx="6.84"/><rect x="463" y="558" width="204" height="46" rx="6.84" transform="translate(-60.221 1066) rotate(-90)"/></svg>