<svg xmlns="http://www.w3.org/2000/svg" viewBox="0 0 748.277 698.658"><circle cx="356.279" cy="165.5" r="165" fill="#9d9fa2" stroke="#9d9fa2" stroke-miterlimit="10"/><path d="M384,478.018V764.085A9.7,9.7,0,0,1,374.531,774H53.691a9.713,9.713,0,0,1-9.464-10.243C45.633,720.731,56.145,552.58,134.738,460c45.832-53.99,65.642-75.054,86.907-66,17.729,7.549,25.863,27.832,69.717,50,27.7,14,63.737,20.155,81.318,21.365A12.45,12.45,0,0,1,384,478.018Z" transform="translate(-43.721 -79.5)" fill="#9d9fa2" stroke="#9d9fa2" stroke-miterlimit="10"/><rect x="448.782" y="423.243" width="325.964" height="89.673" rx="6.84" transform="translate(-183.415 557.887) rotate(-50.118)" fill="#9d9fa2" stroke="#9d9fa2" stroke-miterlimit="10"/><path d="M516.529,649.37a4.6,4.6,0,0,0,4.023-3.709,9.159,9.159,0,0,0-3.35-8.491l-55.035-45.987a9.063,9.063,0,0,0-9.462-1.576,4.478,4.478,0,0,0-2.476,4.291l-5.9,68.2a3.938,3.938,0,0,0,4.881,4.158Z" transform="translate(-43.721 -79.5)" fill="#9d9fa2" stroke="#9d9fa2" stroke-miterlimit="10"/><path d="M735.821,259.845h19.57a17.529,17.529,0,0,1,17.529,17.529V331.79a17.728,17.728,0,0,1-17.728,17.728H736.752a11.689,11.689,0,0,1-11.689-11.689V270.6A10.758,10.758,0,0,1,735.821,259.845Z" transform="translate(-8.793 604.566) rotate(-50.118)" fill="#9d9fa2" stroke="#9d9fa2" stroke-miterlimit="10"/><path d="M773,416" transform="translate(-43.721 -79.5)" fill="none" stroke="#000" stroke-miterlimit="10" stroke-width="10" opacity="0.95"/><path d="M430,774" transform="translate(-43.721 -79.5)" fill="none" stroke="#000" stroke-miterlimit="10" stroke-width="10" opacity="0.95"/><path d="M544.185,432.342c-33.365,26.522-68.821,43.673-102.5,51.452-3.117.729-6.831-1.677-8.313-5.287q-1.383-3.356-2.76-6.733c-1.477-3.635-.19-6.973,2.893-7.544,33.365-6.255,68.821-21.881,102.5-46.88,3.116-2.3,6.831-2.057,8.313.633q1.383,2.514,2.76,5.006C548.554,425.655,547.268,429.881,544.185,432.342Z" transform="translate(-43.721 -79.5)" fill="#9d9fa2"/><path d="M544.185,432.342c-33.365,26.522-68.821,43.673-102.5,51.452-3.117.729-6.831-1.677-8.313-5.287q-1.383-3.356-2.76-6.733c-1.477-3.635-.19-6.973,2.893-7.544,33.365-6.255,68.821-21.881,102.5-46.88,3.116-2.3,6.831-2.057,8.313.633q1.383,2.514,2.76,5.006C548.554,425.655,547.268,429.881,544.185,432.342Z" transform="translate(-43.721 -79.5)" fill="none" stroke="#9d9fa2" stroke-miterlimit="10" stroke-width="11.65"/><path d="M663.712,564c0-5-3-7-7-7l-4.489-.175a6.642,6.642,0,0,0-6.757,6.526l-3.224,184.686a6.642,6.642,0,0,1-6.757,6.526L436.8,751.1a6.642,6.642,0,0,0-6.757,6.526L430,762.163c-.086,4.97,3.872,6.884,8.842,6.971l201.178,3.521a19.7,19.7,0,0,0,20.044-19.345Z" transform="translate(-43.721 -79.5)" fill="#9d9fa2" stroke="#9d9fa2" stroke-miterlimit="10" stroke-width="11"/></svg>